<svg xmlns="http://www.w3.org/2000/svg" width="40" height="32" viewBox="0 0 24 24" fill="none" stroke="url(#temaRengi)" stroke-width="1.5" stroke-linecap="round" stroke-linejoin="round" class="icon-database">
  
  <path d="M12 21V12" />
  <path d="M12 21c-4.42 0-8-1.79-8-4V7a4 4 0 0 1 4-4h8a4 4 0 0 1 4 4v10a4 4 0 0 1-4 4Z" />
  <path d="M4 12c0 2.21 3.58 4 8 4s8-1.79 8-4" />
  <path d="M4 7c0 2.21 3.58 4 8 4s8-1.79 8-4" />
  
  <defs>
    <linearGradient id="temaRengi" x1="0" y1="0" x2="24" y2="24" gradientUnits="userSpaceOnUse">
      <stop offset="0.25" stop-color="#FFDB6E"/>
      <stop offset="1" stop-color="#FFBC5E"/>
    </linearGradient>
  </defs>
</svg>
